ply
format ascii 1.0
comment WRE L3 imported sparse reconstruction
comment white points = reconstructed 3D points; red points = reconstructed camera centers
comment local scale is UNRESOLVED; coordinates are not world/geographic coordinates
element vertex 489
property float x
property float y
property float z
property uchar red
property uchar green
property uchar blue
end_header
-2.593044537 -13.762322259 154.750887105 235 235 235
11.770138853 -8.821462122 108.108783458 235 235 235
-6.451580177 11.219521787 123.889973142 235 235 235
-2.811243151 12.642008074 138.221861966 235 235 235
-2.811243151 12.642008074 138.221861966 235 235 235
-6.278142711 11.648813382 123.883229903 235 235 235
-2.611864049 12.996025634 138.213917276 235 235 235
-6.576383179 -12.524274088 138.141336808 235 235 235
11.814075665 -9.829746626 108.063102613 235 235 235
-5.945985374 -11.702667644 138.169547839 235 235 235
-10.463716306 -9.734003068 123.809183200 235 235 235
-6.839289190 -10.865054578 138.176370272 235 235 235
11.770138853 -8.821462122 108.108783458 235 235 235
-2.154749848 -12.160250653 154.797404488 235 235 235
-11.254145470 -8.512469580 138.134616621 235 235 235
13.271605583 -7.457008185 123.568347935 235 235 235
13.302313640 -6.354086969 123.598253589 235 235 235
-7.762831676 -7.660109919 154.818306427 235 235 235
4.865431212 -3.103563831 108.624413838 235 235 235
-12.724282667 -4.206838411 154.752312301 235 235 235
9.267682821 -3.263618187 123.842555242 235 235 235
-8.965441466 -3.516628907 171.977949264 235 235 235
6.032692438 -0.468283830 123.984077821 235 235 235
-6.160879966 -11.096612100 138.180889903 235 235 235
-12.828534854 0.076874724 171.910847520 235 235 235
10.231277046 0.193864423 138.205983382 235 235 235
10.231277046 0.193864423 138.205983382 235 235 235
11.568957102 0.289863346 138.146169610 235 235 235
17.577591007 0.448466421 154.512231509 235 235 235
11.103324556 4.335712186 154.831027438 235 235 235
19.034563149 5.189567961 171.707953523 235 235 235
19.034563149 5.189567961 171.707953523 235 235 235
2.088561137 7.750391188 138.325316408 235 235 235
13.228442255 10.548970768 171.889545532 235 235 235
-2.908157523 -12.445210377 154.785148581 235 235 235
13.228442255 10.548970768 171.889545532 235 235 235
7.447988095 9.730158663 154.846208537 235 235 235
7.447988095 9.730158663 154.846208537 235 235 235
8.953564807 14.914405920 171.883930195 235 235 235
-3.162078575 -14.057320843 154.739077716 235 235 235
-10.783352042 -10.936938803 123.778912380 235 235 235
-1.721622591 -13.565913633 154.760464242 235 235 235
-11.522116706 -9.401028841 108.460365972 235 235 235
12.485916378 -9.196803070 108.073607824 235 235 235
12.279553779 -9.095534190 108.097120709 235 235 235
-2.908157523 -12.445210377 154.785148581 235 235 235
-6.307440203 -10.832890945 138.184737560 235 235 235
-3.383770471 -10.649025845 171.972011659 235 235 235
-7.517372771 -9.130526162 154.799390644 235 235 235
-4.053763684 -9.621343572 171.984325567 235 235 235
12.739681576 -6.861548564 123.569368348 235 235 235
-8.574884071 -8.334244013 154.793489585 235 235 235
13.152040420 -6.560863979 123.548504659 235 235 235
13.156863185 -6.563632425 123.603982053 235 235 235
-6.616618730 -8.099244225 154.831261436 235 235 235
-13.598902107 -6.122033165 123.856269653 235 235 235
3.158411660 -13.836782541 171.915973441 235 235 235
-8.414544452 -5.647584184 171.969801778 235 235 235
14.679877230 -4.574818948 137.918246384 235 235 235
10.377895374 -3.490546419 123.784001364 235 235 235
-7.357308449 -4.323441670 172.003298324 235 235 235
-14.654876828 -3.250923039 138.102475286 235 235 235
5.015501220 -2.226784664 108.629217646 235 235 235
14.929709677 -2.820467598 137.927339096 235 235 235
16.277049057 -0.336240141 154.596213067 235 235 235
6.460453701 0.035287289 123.973207524 235 235 235
-13.756815740 0.132069156 171.890332250 235 235 235
-2.471303696 -10.215639702 171.991093354 235 235 235
-13.756815740 0.132069156 171.890332250 235 235 235
15.937666556 0.213305399 154.618621437 235 235 235
6.900084710 3.715475409 138.303552246 235 235 235
12.073386215 4.709822856 154.790613591 235 235 235
12.073386215 4.709822856 154.790613591 235 235 235
-1.210996273 3.652874789 108.714031330 235 235 235
17.683354933 5.810930556 171.780107524 235 235 235
2.049610718 4.676486715 124.036558807 235 235 235
7.115286545 8.370622437 154.881246705 235 235 235
-1.383066613 7.841929454 124.003133076 235 235 235
-2.471303696 -10.215639702 171.991093354 235 235 235
6.155422216 9.868514760 154.867935355 235 235 235
6.645852859 10.323168480 154.848791720 235 235 235
1.982594809 12.893416946 154.837684521 235 235 235
8.467785591 14.308170363 171.914289596 235 235 235
8.574650852 15.123355279 171.885136491 235 235 235
-5.304588678 11.143373362 123.907474349 235 235 235
-3.253328516 12.579540831 138.220668685 235 235 235
-6.126531964 11.853249861 123.880780437 235 235 235
7.798539436 16.448507046 171.854195301 235 235 235
-2.318691816 -14.089754999 154.742596307 235 235 235
-11.304489019 -8.155488327 138.138642780 235 235 235
-3.376087770 -13.629605871 154.749814992 235 235 235
-9.541902519 -10.598191566 123.812871802 235 235 235
12.515946241 -8.936025641 108.081597522 235 235 235
2.431850811 -13.888556086 171.916814829 235 235 235
-2.668245059 -10.658838280 171.979643385 235 235 235
15.958584100 -4.022727839 137.715935889 235 235 235
-16.415213116 -3.532028862 137.965476376 235 235 235
-14.013089651 -0.684897730 171.882643524 235 235 235
4.901985761 0.615434953 124.014077587 235 235 235
5.636871014 1.092317639 123.996509523 235 235 235
-8.089692889 -9.053717660 154.790834995 235 235 235
17.162573878 1.354024734 154.540683123 235 235 235
11.726827945 3.877165952 154.812204469 235 235 235
12.373826958 3.897945685 154.786206718 235 235 235
19.872781822 5.084918945 171.654296379 235 235 235
1.719269469 4.064017681 124.045253269 235 235 235
1.539224239 4.664016956 124.040887017 235 235 235
18.470434326 6.469081545 171.724234199 235 235 235
-4.613297631 6.585471636 108.654360989 235 235 235
-2.945303512 7.733936175 123.996650224 235 235 235
14.491505068 10.807522363 171.832806869 235 235 235
1.907831442 -15.129711470 171.877716375 235 235 235
-3.364705499 -9.863294441 171.988313827 235 235 235
-2.663821668 8.001042012 123.994357263 235 235 235
-2.663821668 8.001042012 123.994357263 235 235 235
7.756330085 9.961143325 154.834000708 235 235 235
7.756330085 9.961143325 154.834000708 235 235 235
7.461029907 10.336285829 154.831763478 235 235 235
13.775314801 11.492490471 171.843118611 235 235 235
-8.050810022 9.391681391 108.545017419 235 235 235
6.831825107 14.959916819 171.922317309 235 235 235
2.812960045 14.446373447 154.787692430 235 235 235
2.812960045 14.446373447 154.787692430 235 235 235
-3.364705499 -9.863294441 171.988313827 235 235 235
-2.388682938 13.258832696 138.208027306 235 235 235
1.284369739 -14.541035497 171.897720421 235 235 235
-10.282930764 -9.651422515 123.814846089 235 235 235
-13.093025109 -7.054008337 123.860304530 235 235 235
-6.529027365 -8.622650074 154.824110579 235 235 235
-13.093117684 -6.619729898 123.864380168 235 235 235
-15.670550182 -4.579093304 137.976919935 235 235 235
-14.595962437 -3.748524799 138.101678052 235 235 235
8.793856889 -3.256526694 123.863997599 235 235 235
-11.440777039 -3.956891394 154.783368969 235 235 235
8.283904031 -6.103217475 108.428800590 235 235 235
15.918789835 -3.454327310 137.728865739 235 235 235
-7.815026149 -4.217388430 171.995388303 235 235 235
5.405494579 -2.464995148 108.614485317 235 235 235
9.594251720 -2.475543569 123.836196816 235 235 235
15.188716296 -2.725752247 137.798179083 235 235 235
16.756503877 -0.702029885 154.564140944 235 235 235
4.854245160 0.159319424 124.014660215 235 235 235
-15.015826697 0.473083320 171.863092983 235 235 235
2.274025256 0.468723134 108.704138487 235 235 235
-17.253177358 1.435966134 154.506576316 235 235 235
8.895107235 -6.100809275 108.394592687 235 235 235
19.276889284 4.761346537 171.697726683 235 235 235
11.400652705 4.355153432 154.820112907 235 235 235
11.400652705 4.355153432 154.820112907 235 235 235
10.999682630 4.787609966 154.830071734 235 235 235
19.335862938 5.978972275 171.677584854 235 235 235
19.335862938 5.978972275 171.677584854 235 235 235
11.984199834 5.896097504 154.779231670 235 235 235
12.211240859 10.506067470 171.925632443 235 235 235
2.427146676 8.902749910 138.301702086 235 235 235
2.353116335 12.783627021 154.838619595 235 235 235
-3.091095213 -9.596179884 171.996759622 235 235 235
7.511225456 14.232133256 171.934447928 235 235 235
8.251337985 14.204996749 171.921864733 235 235 235
7.785751441 15.600074805 171.884654414 235 235 235
7.785751441 15.600074805 171.884654414 235 235 235
13.576906456 -7.769693165 123.533239523 235 235 235
-11.492037306 -8.170516037 138.134128204 235 235 235
-8.709167069 -8.635088865 154.786414052 235 235 235
-12.130031292 -7.695143647 138.125652728 235 235 235
-2.973556142 -8.325967575 172.021492367 235 235 235
-15.952876480 -3.237791096 137.976805530 235 235 235
-3.091095213 -9.596179884 171.996759622 235 235 235
-8.338566181 -3.385075382 171.991696641 235 235 235
6.068633976 -0.068784496 123.984262274 235 235 235
6.068633976 -0.068784496 123.984262274 235 235 235
-14.396052607 0.005747728 171.875890647 235 235 235
-14.396052607 0.005747728 171.875890647 235 235 235
1.657328987 3.028964421 124.053337629 235 235 235
13.339073145 9.163920174 171.918335216 235 235 235
-1.724783978 7.682523937 124.004680083 235 235 235
-2.088116315 8.384623812 123.991022821 235 235 235
7.378859598 14.967277667 171.913260557 235 235 235
-13.809611779 -6.815317624 123.845190124 235 235 235
7.378859598 14.967277667 171.913260557 235 235 235
1.653502487 14.253302249 154.801351627 235 235 235
15.835483009 -18.316106720 208.197107971 235 235 235
16.144603115 -17.673674876 208.072243323 235 235 235
16.144603115 -17.673674876 208.072243323 235 235 235
8.896522731 -16.015633594 191.714833545 235 235 235
8.896522731 -16.015633594 191.714833545 235 235 235
8.021695491 -15.728490548 191.737353735 235 235 235
9.574804431 -11.689470637 208.438721127 235 235 235
-13.809611779 -6.815317624 123.845190124 235 235 235
9.574804431 -11.689470637 208.438721127 235 235 235
8.723180333 -11.158471246 208.559988466 235 235 235
8.723180333 -11.158471246 208.559988466 235 235 235
4.714650191 -2.989992328 108.630589062 235 235 235
1.955035278 -5.127628828 208.642755658 235 235 235
2.504162204 -4.664387704 208.696682633 235 235 235
3.404855065 -4.611529864 208.546690096 235 235 235
1.265077752 0.078132539 108.716227736 235 235 235
-4.562169530 0.181154443 208.571028026 235 235 235
1.058555314 0.661590486 108.760054851 235 235 235
-2.510599395 -9.192907598 172.011096207 235 235 235
-10.219130835 1.320224970 191.831978175 235 235 235
-10.219130835 1.320224970 191.831978175 235 235 235
-19.853603504 4.640447407 171.762409751 235 235 235
-19.682465113 4.985118303 171.764722607 235 235 235
-19.682465113 4.985118303 171.764722607 235 235 235
-10.222434684 7.206974053 208.297548901 235 235 235
-10.222434684 7.206974053 208.297548901 235 235 235
-19.930671296 6.192747511 171.756666394 235 235 235
20.540735374 10.951084797 191.582213870 235 235 235
20.540735374 10.951084797 191.582213870 235 235 235
-10.852474400 -7.157117130 138.162474341 235 235 235
-16.780127404 11.992618402 208.145004820 235 235 235
21.330312382 11.769529074 191.511531764 235 235 235
21.330312382 11.769529074 191.511531764 235 235 235
-20.675686869 12.045952381 191.590900514 235 235 235
-15.813767916 13.127332032 207.888895255 235 235 235
-24.251162626 17.706679462 208.151009978 235 235 235
-22.915053914 17.698094159 208.099385996 235 235 235
14.026293231 16.632619786 191.673756631 235 235 235
14.549405535 16.949306684 191.643899843 235 235 235
14.549405535 16.949306684 191.643899843 235 235 235
-9.596279453 -10.857526582 123.806384809 235 235 235
-10.852474400 -7.157117130 138.162474341 235 235 235
-23.331150805 18.519545332 208.068025327 235 235 235
-23.331150805 18.519545332 208.068025327 235 235 235
-12.536493321 -9.586184743 108.576529101 235 235 235
16.691550808 -18.395516680 207.693922164 235 235 235
-12.125197944 -9.056546513 108.581697971 235 235 235
-12.125197944 -9.056546513 108.581697971 235 235 235
11.456152769 -8.909551307 108.157821155 235 235 235
3.046700173 -6.819363504 208.524836210 235 235 235
-2.475232717 -5.653242031 191.940524200 235 235 235
-8.911979291 7.199551797 208.050058549 235 235 235
12.938652421 -6.297132016 123.569632233 235 235 235
-21.410147974 10.767550312 191.590420408 235 235 235
14.900574239 15.973973660 191.669771348 235 235 235
22.775765805 18.009603985 208.007605449 235 235 235
22.775765805 18.009603985 208.007605449 235 235 235
-9.416060932 10.120318835 108.570334182 235 235 235
8.421294886 -17.435472389 191.664588966 235 235 235
9.986968911 -16.870480319 191.662198665 235 235 235
-12.905617958 -9.419030102 108.576111740 235 235 235
11.361022379 -9.311082661 107.986791317 235 235 235
17.006530527 -17.809801662 207.881838067 235 235 235
12.938652421 -6.297132016 123.569632233 235 235 235
-12.913221906 -8.903983391 108.578702986 235 235 235
11.143023139 -8.835217146 108.036071378 235 235 235
-14.379568844 -7.661646284 123.891282203 235 235 235
9.435556476 -11.231401746 208.453073805 235 235 235
9.435556476 -11.231401746 208.453073805 235 235 235
8.303104941 -5.363226074 108.498613795 235 235 235
-4.523284233 -4.756833942 191.916251402 235 235 235
-3.873084247 -4.285890499 191.932414918 235 235 235
-4.921455908 0.991963278 208.565507351 235 235 235
-15.411480623 4.846460296 191.717510959 235 235 235
-15.734158890 -4.050190253 137.978176577 235 235 235
-14.704440970 5.688092002 191.729149793 235 235 235
-18.234879300 5.737432896 171.789722853 235 235 235
-20.378934851 5.888997920 171.749816651 235 235 235
20.140769690 11.725091651 191.581872205 235 235 235
-22.038641294 12.791793288 191.570201167 235 235 235
-24.674707510 18.046652524 208.147400069 235 235 235
14.248961887 18.339418002 191.596210378 235 235 235
11.099867882 -9.080897425 107.892303228 235 235 235
15.524352443 -16.758606016 208.137578107 235 235 235
8.918810356 -15.020631742 191.752098744 235 235 235
-15.734158890 -4.050190253 137.978176577 235 235 235
15.934850439 -16.280128655 207.843067342 235 235 235
-14.733046403 -6.992660354 123.892318585 235 235 235
-2.948102714 -3.876293017 191.951928199 235 235 235
-2.103423032 4.122828633 108.742488032 235 235 235
-15.444413025 12.083966385 207.932798091 235 235 235
-17.623180046 13.378010143 208.227773653 235 235 235
-17.623180046 13.378010143 208.227773653 235 235 235
20.580989301 12.338288878 191.538020603 235 235 235
-16.927738071 13.938620565 207.891272544 235 235 235
20.906602674 12.794492496 191.504008229 235 235 235
-14.921052751 -4.044214707 138.090362903 235 235 235
-24.723299296 18.076026696 208.147345896 235 235 235
16.118838175 16.650093532 191.597486862 235 235 235
14.232652393 17.878345707 191.616567451 235 235 235
15.440226562 17.951542988 191.569560673 235 235 235
-12.041395725 -9.939437092 108.576321129 235 235 235
9.043951397 -17.541236510 191.650526576 235 235 235
16.001404550 -18.959962975 207.690998163 235 235 235
9.509295653 -16.972091637 191.666579714 235 235 235
9.509295653 -16.972091637 191.666579714 235 235 235
-12.200250437 -8.453341066 108.584892820 235 235 235
-14.921052751 -4.044214707 138.090362903 235 235 235
7.971328966 -6.419069341 108.314263705 235 235 235
7.971328966 -6.419069341 108.314263705 235 235 235
8.836255427 -12.325845489 208.356842842 235 235 235
8.839913652 -12.328142191 208.424746797 235 235 235
7.673923044 -6.051750608 108.343341398 235 235 235
10.985517310 -11.632514707 208.353902737 235 235 235
2.859888293 -9.363058095 191.936348801 235 235 235
9.471685805 -10.168494428 208.359667388 235 235 235
2.775754404 -6.372197137 208.218790839 235 235 235
4.248880053 -3.051264800 108.560666016 235 235 235
-12.500997274 -4.459350881 154.755464031 235 235 235
-1.998362130 -5.166238890 191.953473598 235 235 235
5.405494579 -2.464995148 108.614485317 235 235 235
-3.956405334 -0.924033198 208.107930509 235 235 235
-9.957950160 -0.165225722 191.834976306 235 235 235
-9.957950160 -0.165225722 191.834976306 235 235 235
-2.210583000 0.169622351 208.327603996 235 235 235
-2.263943283 3.319360444 108.699118234 235 235 235
-16.713343601 5.955095819 191.688568018 235 235 235
-2.627947733 3.520472918 108.651813418 235 235 235
-8.770570536 6.752849540 208.109720719 235 235 235
-7.664572663 -4.824063269 171.992733691 235 235 235
-9.437033276 7.239850889 208.088144373 235 235 235
-9.437033276 7.239850889 208.088144373 235 235 235
-9.955433091 7.945455204 208.019432256 235 235 235
-5.373804231 5.817583044 108.655383872 235 235 235
-16.611496015 11.162040687 207.892488226 235 235 235
19.671268727 11.369664187 191.617638063 235 235 235
-15.378033401 12.670768562 207.931980976 235 235 235
-6.051721177 6.709197784 108.595909065 235 235 235
-22.843092926 11.983280585 191.567831790 235 235 235
-8.600578072 8.998108100 108.631716317 235 235 235
-15.844848629 -3.669960514 137.977427710 235 235 235
16.190061555 17.230142893 191.570582033 235 235 235
13.581080954 17.395779870 191.657544703 235 235 235
-23.712423867 20.084886398 208.073819972 235 235 235
15.489750445 -18.204132874 207.755975770 235 235 235
15.504470501 -18.219853288 207.920218170 235 235 235
10.129289623 -16.281200071 191.683789593 235 235 235
-13.562180938 -7.241992362 123.895354208 235 235 235
-13.562180938 -7.241992362 123.895354208 235 235 235
2.015633277 -11.111460229 191.892520247 235 235 235
3.475584003 -10.072903729 191.923472569 235 235 235
-9.596279453 -10.857526582 123.806384809 235 235 235
15.616866705 -3.680658456 137.750159779 235 235 235
3.475584003 -10.072903729 191.923472569 235 235 235
4.623905505 -3.215676512 108.545862328 235 235 235
2.361239868 -6.221453038 208.212940031 235 235 235
-9.332844907 -0.828795395 191.846387799 235 235 235
-20.527000511 5.448526689 171.882851008 235 235 235
-18.770237734 5.915682232 171.778822748 235 235 235
-18.770237734 5.915682232 171.778822748 235 235 235
-15.325616913 7.421546649 191.708856977 235 235 235
-5.369936438 7.354178692 108.594662840 235 235 235
-8.459540948 9.355835106 108.629618674 235 235 235
-12.938399483 -3.977424394 154.749063818 235 235 235
-8.459540948 9.355835106 108.629618674 235 235 235
14.865255560 18.491296479 191.567610378 235 235 235
-7.648046566 -9.775424093 154.994091616 235 235 235
-15.411081121 7.490875053 191.966781623 235 235 235
-2.773802062 -13.154867896 154.767371262 235 235 235
13.473222152 -6.912595647 123.547666386 235 235 235
13.473222152 -6.912595647 123.547666386 235 235 235
-7.598266534 -8.598632128 154.806590826 235 235 235
-7.683732240 -4.417919932 171.996215745 235 235 235
-7.598266534 -8.598632128 154.806590826 235 235 235
15.136625656 -3.680571684 137.796987149 235 235 235
-15.373324134 5.882006657 191.801161646 235 235 235
-1.933026219 3.493323868 109.119220642 235 235 235
5.276745372 -2.814838763 108.614900379 235 235 235
-5.326895931 -2.385555011 42.618049224 235 235 235
4.929012840 -2.857167942 108.503377935 235 235 235
18.882694655 5.278913159 172.210455248 235 235 235
9.296229265 -3.117712133 123.843064552 235 235 235
22.696863494 18.546669503 207.815665876 235 235 235
22.696863494 18.546669503 207.815665876 235 235 235
9.296229265 -3.117712133 123.843064552 235 235 235
-2.759389515 -12.003245126 154.998331538 235 235 235
1.539459610 1.089499501 108.777784549 235 235 235
-5.364037757 7.393258131 108.838360054 235 235 235
-6.672079418 -11.646085568 137.778148641 235 235 235
11.584332295 -8.453448818 108.058664068 235 235 235
11.947211988 -8.452720563 108.207634126 235 235 235
12.197336962 -8.995516208 108.151241421 235 235 235
-7.972222706 9.731818471 108.629980791 235 235 235
15.625998202 -3.483046022 137.752556521 235 235 235
-5.343984738 6.596341539 108.705201219 235 235 235
11.784106558 -9.110801486 107.763181472 235 235 235
-13.946611972 -6.913966228 124.111056253 235 235 235
5.103285421 -2.652951070 108.622209667 235 235 235
-8.769175561 9.791082133 108.533663374 235 235 235
-0.904042637 2.647233359 30.178817564 235 235 235
-2.473177876 1.481051788 16.674659107 235 235 235
5.103285421 -2.652951070 108.622209667 235 235 235
-10.865838370 0.458137720 191.684064400 235 235 235
-18.130895712 5.445861994 173.187210419 235 235 235
-13.180835138 -3.763399134 154.744939212 235 235 235
-19.361275820 5.440325209 172.037927747 235 235 235
20.872610754 11.619589757 191.556574180 235 235 235
7.969370251 15.217080163 171.172093085 235 235 235
8.760719165 -16.307973727 191.539932002 235 235 235
16.919369690 0.414733903 154.064175674 235 235 235
-10.085209383 -10.790646388 123.797344319 235 235 235
-16.033548541 -3.126516005 137.975430016 235 235 235
0.822620908 1.775527509 28.262627250 235 235 235
-2.123330987 7.559860195 124.357447294 235 235 235
13.370239946 10.491708080 173.109808100 235 235 235
-0.217745648 -0.761366201 20.621657123 235 235 235
15.136625656 -3.680571684 137.796987149 235 235 235
-0.484279519 -4.022692971 48.308361270 235 235 235
-13.693770519 -0.323632844 171.890689478 235 235 235
-9.910033120 -10.424215086 123.737978525 235 235 235
-1.784153805 -4.823700732 57.194033736 235 235 235
-1.549785551 -3.425807623 40.562984119 235 235 235
16.932919034 0.420253207 154.331785479 235 235 235
-0.038381338 0.667181704 6.955121505 235 235 235
0.303184984 4.227790498 46.607378366 235 235 235
1.619234948 8.388956302 94.006595583 235 235 235
-1.353485660 1.702389509 22.520576805 235 235 235
1.554912969 -0.222353506 108.712406621 235 235 235
-12.344565321 -9.245094765 109.620637967 235 235 235
2.023379918 -3.710494494 43.044010044 235 235 235
18.612804908 17.765242113 199.181110697 235 235 235
18.456870408 17.635742035 197.697406572 235 235 235
-4.515626163 -2.709008041 31.798208425 235 235 235
-13.867429201 -6.864130455 123.157418200 235 235 235
-1.334732540 3.876264837 43.404336086 235 235 235
6.668771353 0.264040738 124.585838801 235 235 235
3.042371635 8.342906579 138.402349226 235 235 235
-9.964396229 -10.491192632 124.444084545 235 235 235
-14.236131701 -0.237990918 171.878880726 235 235 235
-0.453227966 -4.008718954 47.063663692 235 235 235
-13.929811318 -6.911157639 123.970404819 235 235 235
-13.780443466 -6.855379197 122.840314778 235 235 235
0.914036048 2.716558348 30.060833777 235 235 235
-2.930779668 -11.541600121 164.420143777 235 235 235
1.020004676 -1.130628729 26.619509736 235 235 235
4.686491590 -5.490533107 65.300496166 235 235 235
10.356346703 0.008629704 138.200424638 235 235 235
16.905262252 0.093563262 154.557336668 235 235 235
16.905262252 0.093563262 154.557336668 235 235 235
5.320249535 0.209077312 124.004139310 235 235 235
5.479045369 0.332818593 124.000451660 235 235 235
5.479045369 0.332818593 124.000451660 235 235 235
2.595488720 -14.848408632 171.885104919 235 235 235
-13.595203401 0.640525171 171.894747027 235 235 235
10.857431575 0.615248610 138.179646788 235 235 235
10.857431575 0.615248610 138.179646788 235 235 235
5.496915948 0.644208837 124.000227602 235 235 235
5.496915948 0.644208837 124.000227602 235 235 235
5.196827214 0.740214492 124.007455653 235 235 235
5.777557783 0.788924058 123.993065325 235 235 235
-1.428134823 2.959369303 108.718503253 235 235 235
11.777429614 4.329896134 154.806153663 235 235 235
19.552987392 4.798239462 171.679294761 235 235 235
11.841273055 -9.063299460 108.092810152 235 235 235
19.088590205 4.864278297 171.708513181 235 235 235
6.907301573 4.048896602 138.300547142 235 235 235
6.907301573 4.048896602 138.300547142 235 235 235
12.580989539 4.744308727 154.769203547 235 235 235
18.339380106 5.600894433 171.745145782 235 235 235
18.784209412 5.638766365 171.717611268 235 235 235
-1.459946698 3.694075049 108.713207652 235 235 235
-1.459946698 3.694075049 108.713207652 235 235 235
12.711237863 5.332920528 154.756511381 235 235 235
-1.650703225 3.867224784 108.711244331 235 235 235
11.841273055 -9.063299460 108.092810152 235 235 235
1.227182452 4.437070507 124.045157579 235 235 235
1.227182452 4.437070507 124.045157579 235 235 235
-5.219255579 6.464553372 108.647105314 235 235 235
-5.219255579 6.464553372 108.647105314 235 235 235
-2.697271966 7.489165859 124.002363701 235 235 235
-2.697271966 7.489165859 124.002363701 235 235 235
-1.790385324 7.478018255 124.007728644 235 235 235
1.917590750 8.408133725 138.314829732 235 235 235
13.489451995 10.424526472 171.883052592 235 235 235
13.489451995 10.424526472 171.883052592 235 235 235
-10.134836132 -10.113903336 123.809592754 235 235 235
14.019123228 10.752676636 171.853804974 235 235 235
14.019123228 10.752676636 171.853804974 235 235 235
-1.583371640 8.036080714 123.999194784 235 235 235
-1.583371640 8.036080714 123.999194784 235 235 235
-8.578939035 9.357739701 108.533403769 235 235 235
-8.578939035 9.357739701 108.533403769 235 235 235
1.742926516 13.682063656 154.817301958 235 235 235
-1.998976472 12.280477113 138.234530481 235 235 235
-1.998976472 12.280477113 138.234530481 235 235 235
-3.020581559 12.356254178 138.227584674 235 235 235
-6.105121249 0.006659572 -0.182488791 255 64 64
-5.005759133 0.166417479 -0.091469174 255 64 64
-3.870953188 -0.028429773 -0.146838675 255 64 64
-2.766885720 0.005054010 0.075761678 255 64 64
-1.684347985 -0.101101325 -0.046476395 255 64 64
-0.571958618 0.082776040 0.340168158 255 64 64
0.580128697 0.020430759 -0.218326867 255 64 64
1.687064169 0.103847635 0.070734344 255 64 64
2.772157924 -0.063646732 0.077498725 255 64 64
3.875025985 -0.028882099 -0.088287673 255 64 64
4.985527868 -0.163039941 0.150489111 255 64 64
6.078757863 0.003291914 0.181076851 255 64 64
