ply
format ascii 1.0
comment WRE L3.7 deterministic synthetic reference scene
comment white points = synthetic scene patch centers; red points = camera centers
element vertex 68
property float x
property float y
property float z
property uchar red
property uchar green
property uchar blue
end_header
-1.259765625 -0.937500000 4.500000000 240 240 240
-1.009114583 -1.041666667 5.000000000 240 240 240
-0.680338542 -1.145833333 5.500000000 240 240 240
-0.273437500 -1.250000000 6.000000000 240 240 240
0.211588542 -1.354166667 6.500000000 240 240 240
0.774739583 -1.458333333 7.000000000 240 240 240
1.416015625 -1.562500000 7.500000000 240 240 240
1.201171875 -0.937500000 4.500000000 240 240 240
-1.399739583 -0.683593750 5.000000000 240 240 240
-1.110026042 -0.751953125 5.500000000 240 240 240
-0.742187500 -0.820312500 6.000000000 240 240 240
-0.296223958 -0.888671875 6.500000000 240 240 240
0.227864583 -0.957031250 7.000000000 240 240 240
0.830078125 -1.025390625 7.500000000 240 240 240
0.849609375 -0.615234375 4.500000000 240 240 240
1.334635417 -0.683593750 5.000000000 240 240 240
-1.539713542 -0.358072917 5.500000000 240 240 240
-1.210937500 -0.390625000 6.000000000 240 240 240
-0.804036458 -0.423177083 6.500000000 240 240 240
-0.319010417 -0.455729167 7.000000000 240 240 240
0.244140625 -0.488281250 7.500000000 240 240 240
0.498046875 -0.292968750 4.500000000 240 240 240
0.944010417 -0.325520833 5.000000000 240 240 240
1.468098958 -0.358072917 5.500000000 240 240 240
-1.679687500 0.039062500 6.000000000 240 240 240
-1.311848958 0.042317708 6.500000000 240 240 240
-0.865885417 0.045572917 7.000000000 240 240 240
-0.341796875 0.048828125 7.500000000 240 240 240
0.146484375 0.029296875 4.500000000 240 240 240
0.553385417 0.032552083 5.000000000 240 240 240
1.038411458 0.035807292 5.500000000 240 240 240
1.601562500 0.039062500 6.000000000 240 240 240
-1.819661458 0.507812500 6.500000000 240 240 240
-1.412760417 0.546875000 7.000000000 240 240 240
-0.927734375 0.585937500 7.500000000 240 240 240
-0.205078125 0.351562500 4.500000000 240 240 240
0.162760417 0.390625000 5.000000000 240 240 240
0.608723958 0.429687500 5.500000000 240 240 240
1.132812500 0.468750000 6.000000000 240 240 240
1.735026042 0.507812500 6.500000000 240 240 240
-1.959635417 1.048177083 7.000000000 240 240 240
-1.513671875 1.123046875 7.500000000 240 240 240
-0.556640625 0.673828125 4.500000000 240 240 240
-0.227864583 0.748697917 5.000000000 240 240 240
0.179036458 0.823567708 5.500000000 240 240 240
0.664062500 0.898437500 6.000000000 240 240 240
1.227213542 0.973307292 6.500000000 240 240 240
1.868489583 1.048177083 7.000000000 240 240 240
-2.099609375 1.660156250 7.500000000 240 240 240
-0.908203125 0.996093750 4.500000000 240 240 240
-0.618489583 1.106770833 5.000000000 240 240 240
-0.250651042 1.217447917 5.500000000 240 240 240
0.195312500 1.328125000 6.000000000 240 240 240
0.719401042 1.438802083 6.500000000 240 240 240
1.321614583 1.549479167 7.000000000 240 240 240
2.001953125 1.660156250 7.500000000 240 240 240
-0.750000000 0.000000000 0.000000000 255 64 64
-0.614000000 0.012000000 0.000000000 255 64 64
-0.477000000 -0.009000000 0.000000000 255 64 64
-0.341000000 0.006000000 0.000000000 255 64 64
-0.205000000 -0.012000000 0.000000000 255 64 64
-0.068000000 0.009000000 0.000000000 255 64 64
0.068000000 -0.006000000 0.000000000 255 64 64
0.205000000 0.012000000 0.000000000 255 64 64
0.341000000 -0.009000000 0.000000000 255 64 64
0.477000000 0.006000000 0.000000000 255 64 64
0.614000000 -0.012000000 0.000000000 255 64 64
0.750000000 0.000000000 0.000000000 255 64 64
